<svg width="820" height="820" viewBox="0 0 217 217" xmlns="http://www.w3.org/2000/svg"><g font-size="25.4" font-family="Oregano" fill="#37b24d"><path d="M54.9 82.9c.3.4.6 1.7.8 4 .2 2.2.4 5.1.4 8.7a273.8 273.8 0 0 1-.5 16.4 351.4 351.4 0 0 1-.7 17.5c-.3 4.5-.4 8.6-.5 12.4v11a613.5 613.5 0 0 0 .2 22.2c0 2.8 0 5-.3 6.5-.2 1.4-.6 2.2-1.2 2.4-.8.1-1.3.5-1.8 1s-1 1-1.3 1.5c-.4.5-1 .9-1.5 1.2-.5.4-1 .5-1.8.3-.4 0-1-.4-2-1l-3.1-2.3c-1-1-2-2-3-3.3a9.7 9.7 0 0 1-2-3.7l-.4-3.8a580.9 580.9 0 0 1-.7-26V129a220.4 220.4 0 0 1 2.4-33.9l.8-5.9c.3-1.9.6-3.3 1-4.4.4-1.1.8-1.9 1.2-2.4.4-.5.9-.7 1.3-.8l1.4-.4a45.5 45.5 0 0 1 9.7 1c.9.2 1.4.5 1.6.7z" style="-inkscape-font-specification:Oregano;white-space:pre;inline-size:82.3358" aria-label="ikana" transform="translate(-21.4 -31.6) scale(1.27835)"/><path d="M61.8 107.9c2-1.2 4.6-3.2 7.5-5.9 3-2.8 6-6 9.3-9.4a570.1 570.1 0 0 0 19.6-22l8.1-9.3c2.4-2.7 4.3-4.6 5.6-5.7 1.8-1.5 3.3-2.4 4.5-2.8 1.3-.5 2.3-.7 3.1-.5a4 4 0 0 1 2.2 1l1.8 1.6c.5.6 1.2 1 2 1.9 2 1.7 3.2 2.7 3.6 3.7 0 1 0 2-.9 3.5-.4 1.3-1.6 3.7-3.2 5.6l-8.8 9.4c-3.5 3.7-6.9 7.4-11.2 11.6-4.5 4.4-8.1 7.6-12.5 12-4.3 4.6-6.5 6.7-11 11.3 1.6 1.5 1 1.2 3 4 1.7 3 2.7 5.9 4.5 9.3 2 3.6 4 7.6 7 11a56 56 0 0 0 20.8 16.2c4 1.8 8.3 2.7 12.8 2.7a49.2 49.2 0 0 0 23.5-5.3 39.3 39.3 0 0 0 11-8c1.8-2.4 3.3-3.2 4.5-2.3 1.3.9 1.8 2.9 1.6 6a48.5 48.5 0 0 1-5.1 13.5 80.4 80.4 0 0 1-5.8 9 48.6 48.6 0 0 1-18.5 14.4 34.8 34.8 0 0 1-28.5-1.4 58.6 58.6 0 0 1-13.3-9.6 96 96 0 0 1-11.4-13A450 450 0 0 1 78 146l-8.6-13c-2.6-4-5.1-7.2-7.6-9.5.2 1.6.3 3.2.3 5zM61.3 46.3c.1 1.5 0 3.3-.2 5.3a33.2 33.2 0 0 1-2.8 10.6 6.6 6.6 0 0 1-2.6 3c-2.6 1.3-5 2-7 2a8 8 0 0 1-4.1-1l-3.4-2.7c-1.6-1.3-3-3-4-5-1.1-2.1-1.6-4.1-1.6-6 0-1.5.2-3.4.7-5.5a55.5 55.5 0 0 1 4.5-12.1c1-1.8 2-3 2.8-3.6a6.9 6.9 0 0 1 3.7-1.8c1.2-.2 2.2-.1 2.9.1 1.7.4 3.3 1 4.7 1.6 1.3.5 2.4 1.4 3.3 2.7 1 1.2 1.7 2.8 2.2 4.8.4 2 .8 4.5 1 7.6z" style="-inkscape-font-specification:Oregano;white-space:pre;inline-size:82.3358" transform="translate(-21.4 -31.6) scale(1.27835)"/></g></svg>
